<?xml version="1.0" standalone="no"?>
<!DOCTYPE svg PUBLIC "-//W3C//DTD SVG 20010904//EN"
 "http://www.w3.org/TR/2001/REC-SVG-20010904/DTD/svg10.dtd">
<svg version="1.0" xmlns="http://www.w3.org/2000/svg"
 width="163.000000pt" height="163.000000pt" viewBox="0 0 163.000000 163.000000"
 preserveAspectRatio="xMidYMid meet">
<metadata>
Created by potrace 1.14, written by Peter Selinger 2001-2017
</metadata>
<g transform="translate(0.000000,163.000000) scale(0.100000,-0.100000)"
fill="#000000" stroke="none">
<path d="M385 1546 c-43 -14 -100 -77 -116 -128 -9 -27 -12 -65 -9 -101 3 -32
3 -60 1 -63 -3 -2 -4 -21 -4 -42 1 -20 2 -71 3 -112 1 -41 1 -79 0 -85 -2 -17
-2 -329 0 -340 1 -5 2 -13 1 -17 -5 -18 -3 -104 3 -118 3 -8 7 -28 9 -45 1
-16 8 -40 15 -52 7 -13 10 -23 6 -23 -3 0 -1 -6 5 -13 6 -8 8 -17 4 -20 -3 -4
0 -7 7 -7 7 0 11 -3 7 -6 -11 -11 70 -125 118 -166 63 -54 82 -68 93 -68 6 0
12 -4 12 -9 0 -5 10 -12 23 -16 12 -4 24 -8 27 -9 126 -55 224 -64 370 -32 8
2 28 8 43 15 16 6 30 11 32 11 15 0 127 75 160 107 98 94 146 177 166 287 6
36 12 199 13 399 1 275 -1 341 -12 350 -21 17 -42 17 -42 1 0 -9 -4 -13 -8
-10 -4 2 -8 -70 -9 -161 -1 -163 -1 -167 -24 -184 -13 -10 -26 -14 -27 -8 -2
5 -7 7 -12 4 -14 -9 -21 30 -22 127 -1 97 -11 144 -28 133 -5 -3 -10 0 -10 7
0 8 -5 7 -17 -5 -14 -14 -17 -41 -17 -194 0 -110 -4 -182 -11 -189 -40 -40
-73 -12 -74 64 0 77 -7 94 -39 90 l-27 -3 -5 -181 c-5 -176 -6 -182 -32 -222
-35 -52 -78 -75 -143 -74 -63 0 -114 30 -145 85 -21 37 -22 50 -24 460 -3 414
-6 469 -26 475 -5 2 -10 9 -10 15 0 25 -72 73 -102 68 -5 0 -8 4 -8 9 0 13
-73 10 -115 -4z"/>
<path d="M1312 1517 c-13 -26 -14 -175 -1 -199 10 -18 33 -18 51 0 15 15 20
170 7 195 -6 10 -13 16 -16 13 -4 -3 -11 -1 -18 4 -8 7 -15 3 -23 -13z"/>
<path d="M1165 1484 c-17 -13 -20 -28 -20 -127 -1 -132 4 -159 30 -163 34 -5
42 24 43 150 0 66 -2 126 -5 132 -7 20 -27 23 -48 8z"/>
<path d="M1008 1366 c-21 -15 -25 -105 -7 -123 12 -12 39 -6 51 11 13 19 9 97
-6 112 -17 17 -17 17 -38 0z"/>
<path d="M1002 1168 c-18 -18 -16 -172 2 -187 19 -16 60 4 52 24 -3 8 -1 17 5
20 5 4 7 11 3 16 -9 16 -10 89 -1 92 9 3 -30 47 -41 47 -5 0 -13 -5 -20 -12z"/>
</g>
</svg>
